<?xml version="1.0" encoding="iso-8859-1"?>
<!-- Generator: Adobe Illustrator 16.0.0, SVG Export Plug-In . SVG Version: 6.00 Build 0)  -->
<!DOCTYPE svg PUBLIC "-//W3C//DTD SVG 1.1//EN" "http://www.w3.org/Graphics/SVG/1.1/DTD/svg11.dtd">
<svg xmlns="http://www.w3.org/2000/svg" xmlns:xlink="http://www.w3.org/1999/xlink" version="1.1" id="Capa_1" x="0px" y="0px" width="512px" height="512px" viewBox="0 0 57.111 57.111" style="enable-background:new 0 0 57.111 57.111;" xml:space="preserve">
<g>
	<g>
		<path d="M49.393,21.331l-0.003-0.497C49.39,9.346,40.044,0,28.557,0S7.724,9.346,7.724,20.834L7.72,21.36    c-0.021,2.266-0.061,6.487,1.733,8.734c1.928,2.411,3.597,3.78,4.938,4.881c2.26,1.854,3.624,2.971,4.776,7.856    c0.16,0.676,0.764,1.153,1.46,1.153h15.859c0.695,0,1.3-0.479,1.46-1.153c1.159-4.918,2.682-6.168,4.985-8.06    c1.388-1.139,2.959-2.43,4.734-4.688C49.447,27.822,49.411,23.599,49.393,21.331z M45.31,28.23    c-1.573,2.002-2.95,3.133-4.28,4.225c-2.305,1.891-4.314,3.543-5.705,8.531H21.792c-1.361-4.939-3.207-6.451-5.5-8.332    c-1.295-1.063-2.765-2.268-4.495-4.434c-1.128-1.412-1.093-5.209-1.077-6.832l0.004-0.555c0-9.834,8-17.834,17.833-17.834    c9.833,0,17.833,8,17.833,17.834l0.003,0.521C46.407,22.984,46.438,26.794,45.31,28.23z" fill="#60c17d"/>
		<path d="M36.432,46.111H20.807c-0.829,0-1.5,0.672-1.5,1.5s0.671,1.5,1.5,1.5h15.625c0.829,0,1.5-0.672,1.5-1.5    S37.261,46.111,36.432,46.111z" fill="#60c17d"/>
		<path d="M36.432,50.111H20.807c-0.829,0-1.5,0.672-1.5,1.5s0.671,1.5,1.5,1.5h15.625c0.829,0,1.5-0.672,1.5-1.5    S37.261,50.111,36.432,50.111z" fill="#60c17d"/>
		<path d="M33.682,54.111H23.557c-0.829,0-1.5,0.672-1.5,1.5s0.671,1.5,1.5,1.5h10.125c0.829,0,1.5-0.672,1.5-1.5    S34.511,54.111,33.682,54.111z" fill="#60c17d"/>
	</g>
</g>
<g>
</g>
<g>
</g>
<g>
</g>
<g>
</g>
<g>
</g>
<g>
</g>
<g>
</g>
<g>
</g>
<g>
</g>
<g>
</g>
<g>
</g>
<g>
</g>
<g>
</g>
<g>
</g>
<g>
</g>
</svg>
